<?xml version="1.0" encoding="UTF-8"?>
<!DOCTYPE svg PUBLIC "-//W3C//DTD SVG 1.1//EN" "http://www.w3.org/Graphics/SVG/1.1/DTD/svg11.dtd">
<!-- Creator: CorelDRAW -->
<svg xmlns="http://www.w3.org/2000/svg" xml:space="preserve" width="2.83333in" height="2.83333in" version="1.1" style="shape-rendering:geometricPrecision; text-rendering:geometricPrecision; image-rendering:optimizeQuality; fill-rule:evenodd; clip-rule:evenodd"
viewBox="0 0 2833 2833"
 xmlns:xlink="http://www.w3.org/1999/xlink">
 <defs>
  <style type="text/css">
   <![CDATA[
    .fil4 {fill:#35495E}
    .fil5 {fill:#BDC3C7}
    .fil2 {fill:#E04141}
    .fil6 {fill:#E7A561}
    .fil3 {fill:#F0F1F1}
    .fil1 {fill:#F94848}
    .fil0 {fill:#FFBFA7}
   ]]>
  </style>
 </defs>
 <g id="Layer_x0020_1">
  <metadata id="CorelCorpID_0Corel-Layer"/>
  <circle class="fil0" cx="1417" cy="1417" r="1417"/>
  <path class="fil1" d="M2143 1997c-12,0 -22,-9 -23,-21l-1163 71 -4 0 0 -3 0 -1436c-8,-4 -13,-12 -13,-21 0,-13 10,-24 23,-24l1180 0c13,0 24,11 24,24l0 1386c0,13 -11,24 -24,24z"/>
  <path class="fil2" d="M667 967l0 -190c0,-116 97,-214 213,-214l83 0 0 0 1 0 0 0 1 0 0 0 0 0 0 0 1 0 0 0 0 1 0 0 1 0 0 0 0 0 0 0 1 0 0 0 1 0 0 0 0 0 0 0 1 0 0 0 0 0 0 0 1 1 0 0 0 0 0 0 1 0 0 0 0 0 0 0 1 0 0 0 0 1 1 0 0 0 0 0 1 0 0 0 0 0 0 0 0 1 0 0 1 0 0 0 0 0 0 0 1 1 0 0 0 0 0 0 1 0 0 0 0 1 0 0 1 0 0 0 0 0 0 0 0 1 0 0 1 0 0 0 0 1 0 0 1 0 0 0 0 0 0 0 0 1 0 0 1 0 0 0 0 1 0 0 0 0 0 0 1 1 0 0 0 0 0 0 0 1 0 0 1 0 0 0 0 1 0 0 0 0 0 0 0 1 0 0 1 0 0 0 0 1 0 0 0 0 0 0 0 1 0 0 0 0 0 0 1 1 0 0 0 0 0 0 0 1 0 0 0 0 0 0 0 1 0 0 0 1 0 0 0 0 0 0 0 1 0 0 1 0 0 0 0 1 0 0 0 0 0 0 0 1 0 0 0 1 0 0 0 1386c0,13 -11,24 -24,24 -6,0 -12,-3 -16,-7l-234 110 0 10c0,13 -10,23 -23,23 -13,0 -23,-10 -23,-23l0 -1143z"/>
  <path class="fil2" d="M2143 2270l-1313 0c-89,0 -163,-73 -163,-160 0,-88 73,-160 163,-160l1313 0c13,0 24,10 24,23l0 274c0,13 -11,23 -24,23z"/>
  <path class="fil3" d="M2133 2237l0 -254 -1303 0c-70,0 -130,56 -130,127 0,70 61,127 130,127l1303 0z"/>
  <path class="fil4" d="M1807 1810c-45,0 -80,-35 -80,-80l0 -340c0,-13 10,-23 23,-23l117 0c13,0 23,10 23,23l0 340c0,46 -36,80 -83,80z"/>
  <path class="fil2" d="M2167 2087l0 46 -457 0c-13,0 -23,-10 -23,-23 0,-13 10,-23 23,-23l457 0z"/>
  <path class="fil5" d="M1867 1413l-170 0c-12,0 -23,-9 -24,-21 -15,-183 36,-413 139,-632 4,-9 13,-14 23,-13 9,0 17,7 20,16 3,7 55,176 35,628 -1,13 -11,22 -23,22z"/>
  <path class="fil6" d="M1370 1810c-61,0 -93,-101 -93,-197 0,-69 6,-146 12,-227 6,-77 13,-157 14,-236 1,-13 11,-23 24,-23 180,4 -86,0 90,0 13,0 23,10 23,23 0,85 6,170 12,253 6,75 11,146 11,210 0,95 -29,197 -93,197z"/>
  <path class="fil3" d="M1370 1187c-87,0 -160,-101 -160,-220 0,-120 73,-220 160,-220 45,0 86,24 116,68 28,41 44,95 44,152 0,56 -16,110 -44,151 -30,44 -71,69 -116,69z"/>
 </g>
</svg>
